{"title":"The Green Mile [1080p.BluRay.DTS.AC3.x264] [gixerk9] [Lektor PL]","uid":9391838,"size":20399412447,"categoryP":"video","categoryS":"hd___movies","magnet":"?xt=urn:btih:d21b1678e9ae15f21ba9e166b126039e1b5f7675&amp;dn=The+Green+Mile+%5B1080p.BluRay.DTS.AC3.x264%5D+%5Bgixerk9%5D+%5BLektor+PL%5D&amp;tr=udp%3A%2F%2Ftracker.openbittorrent.com%3A80&amp;tr=udp%3A%2F%2Fopen.demonii.com%3A1337&amp;tr=udp%3A%2F%2Ftracker.coppersurfer.tk%3A6969&amp;tr=udp%3A%2F%2Fexodus.desync.com%3A6969","seeders":4,"leechers":2,"uploader":"gixer1000k9","files":-1,"time":1387898679,"description":"The Green Mile\n\nGenre: Crime | Drama | Fantasy\n\nRelease date:  10 December 1999 (USA)\n\nFrank Darabont returns to the directors chair with another adaptation of Stephen Kings novel. The events take place at a death row, the guards call the green mile. The story is a layered, rather character-driven fantasy tale of the events that transpire at &quot;the mile&quot; after the arrival of a giant man, John Coffey (Michael Duncan), convicted of the murder of two small girls. Actually this is not one single story, but several tied together seamlessly.\n\n A character-driven movie requires a lot from the cast, and fortunately when it comes to cast, The Green Mile delivers. As the poster of the movie tells, this movie stars Tom Hanks as Paul Edgecomb, senior prison guard of the mile, and as always he performs very well indeed. Yet the cast around him is even more spectacular, perhaps partially due to them being relatively unknown. With a face you know, one inevitably remembers previous performances, and the new role is coloured by this. Doug Hutchison as Percy Wetmore, a mean spirited prison guard was particularly impressive, yet his character could have been given more depth. The most captivating was the performance of Michael Duncan.\n\n It is hard to find a flaw in this movie. The camerawork is superb, cast wonderful and direction flawless. The movie's considerable length, a bit over three hours, is something that had me worried. Yet the marvellous cast and the peaceful yet firm pace of the movie held my attention progressively through the three hours right to the touching culmination. Many will find this movie to be too long, but I for one was delighted of the style, combination of simplicity of events and depth of characters and conversation.\n\nCast:\n\nTom Hanks \t  \tPaul Edgecomb \nDavid Morse \t \tBrutus 'Brutal' Howell \nMichael Clarke Duncan \tJohn Coffey \nBonnie Hunt     \tJan Edgecomb \nJames Cromwell \t  \tWarden Hal Moores \nMichael Jeter \t  \tEduard Delacroix \nGraham Greene \t \tArlen Bitterbuck \nDoug Hutchison \t\tPercy Wetmore \nSam Rockwell \t\t'Wild Bill' Wharton \nBarry Pepper \t\tDean Stanton \nJeffrey DeMunn \t \tHarry Terwilliger \nPatricia Clarkson \tMelinda Moores \nHarry Dean Stanton \tToot-Toot \nDabbs Greer \t  \tOld Paul Edgecomb \nEve Brent \t  \tElaine Connelly\n\nScreenshots:\n &lt;a href=&quot;\nhttp://i.imgur.com/DZltE9G.jpg&quot; rel=&quot;nofollow&quot; target=&quot;_NEW&quot;&gt;\nhttp://i.imgur.com/DZltE9G.jpg&lt;/a&gt; &lt;a href=&quot;\nhttp://i.imgur.com/BccS0DP.jpg&quot; rel=&quot;nofollow&quot; target=&quot;_NEW&quot;&gt;\nhttp://i.imgur.com/BccS0DP.jpg&lt;/a&gt; &lt;a href=&quot;\nhttp://i.imgur.com/VbbMv7H.jpg&quot; rel=&quot;nofollow&quot; target=&quot;_NEW&quot;&gt;\nhttp://i.imgur.com/VbbMv7H.jpg&lt;/a&gt; &lt;a href=&quot;\nhttp://i.imgur.com/XbkFMwl.jpg&quot; rel=&quot;nofollow&quot; target=&quot;_NEW&quot;&gt;\nhttp://i.imgur.com/XbkFMwl.jpg&lt;/a&gt;\n\n Technical Data:\n\n General\n\n Format : Matroska\n Format version : Version 2\n File size : 19.0 GiB\n Duration : 3h 8mn\n Overall bit rate : 14.4 Mbps\n Encoded date : UTC 2013-12-24 11:42:00\n Writing application : mkvmerge v5.7.0 ('The Whirlwind') built on Jul 8 2012 20:08:51\n Writing library : libebml v1.2.3 + libmatroska v1.3.0\n\n Video\n ID : 1\n Format : AVC\n Format/Info : Advanced Video Codec\n Format profile : &lt;a class=&quot;__cf_email__&quot; href=&quot;/cdn-cgi/l/email-protection&quot; data-cfemail=&quot;4800212f2008047c6679&quot;&gt;[email&amp;#160;protected]&lt;/a&gt;&lt;script cf-hash='f9e31' type=&quot;text/javascript&quot;&gt;\n/* &lt;![CDATA[ */!function(){try{var t=&quot;currentScript&quot;in document?document.currentScript:function(){for(var t=document.getElementsByTagName(&quot;script&quot;),e=t.length;e--;)if(t[e].getAttribute(&quot;cf-hash&quot;))return t[e]}();if(t&amp;&amp;t.previousSibling){var e,r,n,i,c=t.previousSibling,a=c.getAttribute(&quot;data-cfemail&quot;);if(a){for(e=&quot;&quot;,r=parseInt(a.substr(0,2),16),n=2;a.length-n;n+=2)i=parseInt(a.substr(n,2),16)^r,e+=String.fromCharCode(i);e=document.createTextNode(e),c.parentNode.replaceChild(e,c)}}}catch(u){}}();/* ]]&gt; */&lt;/script&gt;\n Format settings, CABAC : Yes\n Format settings, ReFrames : 2 frames\n Codec ID : V_MPEG4/ISO/AVC\n Duration : 3h 8mn\n Bit rate : 12.2 Mbps\n Nominal bit rate : 13.0 Mbps\n Width : 1 920 pixels\n Height : 1 080 pixels\n Display aspect ratio : 16:9\n Frame rate mode : Constant\n Frame rate : 23.976 fps\n Color space : YUV\n Chroma subsampling : 4:2:0\n Bit depth : 8 bits\n Scan type : Progressive\n Bits/(Pixel*Frame) : 0.246\n Stream size : 16.1 GiB (85%)\n Writing library : x264 core 140 r2345\n Default : Yes\n Forced : No\n\n Audio #1\n ID : 2\n Format : AC-3\n Format/Info : Audio Coding 3\n Mode extension : CM (complete main)\n Format settings, Endianness : Big\n Codec ID : A_AC3\n Duration : 3h 8mn\n Bit rate mode : Constant\n Bit rate : 384 Kbps\n Channel count : 6 channels\n Channel positions : Front: L C R, Side: L R, LFE\n Sampling rate : 48.0 KHz\n Bit depth : 16 bits\n Compression mode : Lossy\n Delay relative to video : -42ms\n Stream size : 518 MiB (3%)\n Title : Lektor\n Language : Polish\n Default : Yes\n Forced : No\n\n Audio #2\n ID : 3\n Format : DTS\n Format/Info : Digital Theater Systems\n Mode : 16\n Format settings, Endianness : Big\n Codec ID : A_DTS\n Duration : 3h 8mn\n Bit rate mode : Constant\n Bit rate : 1 509 Kbps\n Channel count : 6 channels\n Channel positions : Front: L C R, Side: L R, LFE\n Sampling rate : 48.0 KHz\n Bit depth : 16 bits\n Compression mode : Lossy\n Delay relative to video : -42ms\n Stream size : 1.99 GiB (10%)\n Title : DTS\n Language : English\n Default : No\n Forced : No\n\n Text\n ID : 4\n Format : UTF-8\n Codec ID : S_TEXT/UTF8\n Codec ID/Info : UTF-8 Plain Text\n Language : Polish\n Default : Yes\n Forced : No","torrent":{"xt":"urn:btih:d21b1678e9ae15f21ba9e166b126039e1b5f7675","amp;dn":"The+Green+Mile+%5B1080p.BluRay.DTS.AC3.x264%5D+%5Bgixerk9%5D+%5BLektor+PL%5D","amp;tr":["udp%3A%2F%2Ftracker.openbittorrent.com%3A80","udp%3A%2F%2Fopen.demonii.com%3A1337","udp%3A%2F%2Ftracker.coppersurfer.tk%3A6969","udp%3A%2F%2Fexodus.desync.com%3A6969"],"infoHash":"d21b1678e9ae15f21ba9e166b126039e1b5f7675","infoHashBuffer":{"type":"Buffer","data":[210,27,22,120,233,174,21,242,27,169,225,102,177,38,3,158,27,95,118,117]},"announce":[],"urlList":[]}}